<svg width="402" height="874" viewBox="0 0 402 874" fill="none" xmlns="http://www.w3.org/2000/svg">
<g clip-path="url(#clip0_130_1435)">
<rect width="402" height="874" rx="30" fill="white"/>
<circle cx="201" cy="437" r="510" fill="#10B4B6"/>
<g style="mix-blend-mode:overlay" opacity="0.3">
<mask id="mask0_130_1435" style="mask-type:alpha" maskUnits="userSpaceOnUse" x="0" y="-342" width="402" height="1228">
<rect y="-342" width="402" height="1228" rx="40" fill="url(#paint0_linear_130_1435)"/>
</mask>
<g mask="url(#mask0_130_1435)">
<path d="M-443.333 -0.604863C-88.1266 -525.293 54.8221 624.175 451.973 -554.052" stroke="black" stroke-width="1.1935" stroke-miterlimit="10" stroke-linecap="round" stroke-linejoin="round" stroke-dasharray="1 1"/>
<path d="M-441.325 18.4171C-75.0258 -531.86 67.8173 618.74 456.199 -520.311" stroke="black" stroke-width="1.2581" stroke-miterlimit="10" stroke-linecap="round" stroke-linejoin="round" stroke-dasharray="1 1"/>
<path d="M-439.318 37.6657C-61.8187 -538.427 80.8131 613.532 460.319 -486.569" stroke="black" stroke-width="1.3226" stroke-miterlimit="10" stroke-linecap="round" stroke-linejoin="round" stroke-dasharray="1 1"/>
<path d="M-437.416 56.6874C-48.7182 -544.994 93.808 608.323 464.439 -453.055" stroke="black" stroke-width="1.3871" stroke-miterlimit="10" stroke-linecap="round" stroke-linejoin="round" stroke-dasharray="1 1"/>
<path d="M-435.408 75.9359C-35.6168 -551.561 106.698 602.888 468.666 -419.313" stroke="black" stroke-width="1.4516" stroke-miterlimit="10" stroke-linecap="round" stroke-linejoin="round" stroke-dasharray="1 1"/>
<path d="M-433.401 94.9578C-22.5158 -558.128 119.693 597.68 472.786 -385.572" stroke="black" stroke-width="1.5161" stroke-miterlimit="10" stroke-linecap="round" stroke-linejoin="round" stroke-dasharray="1 1"/>
<path d="M-431.499 114.206C-9.41477 -564.695 132.689 592.472 477.013 -352.057" stroke="black" stroke-width="1.5806" stroke-miterlimit="10" stroke-linecap="round" stroke-linejoin="round" stroke-dasharray="1 1"/>
<path d="M-429.492 133.228C3.7918 -571.262 145.684 587.037 481.133 -318.316" stroke="black" stroke-width="1.6452" stroke-miterlimit="10" stroke-linecap="round" stroke-linejoin="round" stroke-dasharray="1 1"/>
<path d="M-427.485 152.476C16.8928 -577.829 158.679 581.828 485.253 -284.575" stroke="black" stroke-width="1.7097" stroke-miterlimit="10" stroke-linecap="round" stroke-linejoin="round" stroke-dasharray="1 1"/>
<path d="M-425.477 171.498C29.9937 -584.396 171.569 576.393 489.48 -250.834" stroke="black" stroke-width="1.7742" stroke-miterlimit="10" stroke-linecap="round" stroke-linejoin="round" stroke-dasharray="1 1"/>
<path d="M-423.575 190.747C43.0947 -590.737 184.564 571.185 493.494 -217.092" stroke="black" stroke-width="1.8387" stroke-miterlimit="10" stroke-linecap="round" stroke-linejoin="round" stroke-dasharray="1 1"/>
<path d="M-421.568 209.769C56.1957 -597.531 197.56 565.977 497.72 -183.578" stroke="black" stroke-width="1.9032" stroke-miterlimit="10" stroke-linecap="round" stroke-linejoin="round" stroke-dasharray="1 1"/>
<path d="M-419.56 228.791C69.4027 -604.098 210.555 560.542 501.947 -149.836" stroke="black" stroke-width="1.9677" stroke-miterlimit="10" stroke-linecap="round" stroke-linejoin="round" stroke-dasharray="1 1"/>
<path d="M-417.553 248.039C82.5031 -610.664 223.444 555.334 506.067 -116.321" stroke="black" stroke-width="2.0323" stroke-miterlimit="10" stroke-linecap="round" stroke-linejoin="round" stroke-dasharray="1 1"/>
<path d="M-415.651 267.061C95.6047 -617.232 236.44 549.898 510.188 -82.5804" stroke="black" stroke-width="2.0968" stroke-miterlimit="10" stroke-linecap="round" stroke-linejoin="round" stroke-dasharray="1 1"/>
<path d="M-413.644 286.31C108.705 -623.799 249.435 544.691 514.413 -48.8385" stroke="black" stroke-width="2.1613" stroke-miterlimit="10" stroke-linecap="round" stroke-linejoin="round" stroke-dasharray="1 1"/>
<path d="M-411.636 305.331C121.912 -630.366 262.431 539.255 518.534 -15.3241" stroke="black" stroke-width="2.2258" stroke-miterlimit="10" stroke-linecap="round" stroke-linejoin="round" stroke-dasharray="1 1"/>
<path d="M-409.629 324.579C135.013 -636.933 275.426 534.273 522.76 18.6435" stroke="black" stroke-width="2.2903" stroke-miterlimit="10" stroke-linecap="round" stroke-linejoin="round" stroke-dasharray="1 1"/>
<path d="M-407.728 343.601C148.114 -643.501 288.316 528.838 526.775 52.1579" stroke="black" stroke-width="2.3548" stroke-miterlimit="10" stroke-linecap="round" stroke-linejoin="round" stroke-dasharray="1 1"/>
<path d="M-405.72 362.849C161.215 -649.841 301.311 523.63 531.001 85.8993" stroke="black" stroke-width="2.4194" stroke-miterlimit="10" stroke-linecap="round" stroke-linejoin="round" stroke-dasharray="1 1"/>
<path d="M-403.713 381.872C174.422 -656.635 314.306 518.195 535.122 119.414" stroke="black" stroke-width="2.4839" stroke-miterlimit="10" stroke-linecap="round" stroke-linejoin="round" stroke-dasharray="1 1"/>
<path d="M-401.811 400.894C187.522 -663.201 327.301 512.987 539.347 153.156" stroke="black" stroke-width="2.5484" stroke-miterlimit="10" stroke-linecap="round" stroke-linejoin="round" stroke-dasharray="1 1"/>
<path d="M-399.803 420.142C200.624 -669.768 340.192 507.553 543.468 186.897" stroke="black" stroke-width="2.6129" stroke-miterlimit="10" stroke-linecap="round" stroke-linejoin="round" stroke-dasharray="1 1"/>
<path d="M-397.796 439.164C213.725 -676.336 353.187 502.117 547.589 220.412" stroke="black" stroke-width="2.6774" stroke-miterlimit="10" stroke-linecap="round" stroke-linejoin="round" stroke-dasharray="1 1"/>
<path d="M-395.788 458.412C226.932 -682.903 366.183 497.135 551.815 254.379" stroke="black" stroke-width="2.7419" stroke-miterlimit="10" stroke-linecap="round" stroke-linejoin="round" stroke-dasharray="1 1"/>
<path d="M-393.887 477.434C239.927 -689.47 379.072 491.701 555.935 287.894" stroke="black" stroke-width="2.8065" stroke-miterlimit="10" stroke-linecap="round" stroke-linejoin="round" stroke-dasharray="1 1"/>
<path d="M-391.879 496.682C253.134 -696.037 392.173 486.492 560.056 321.635" stroke="black" stroke-width="2.871" stroke-miterlimit="10" stroke-linecap="round" stroke-linejoin="round" stroke-dasharray="1 1"/>
<path d="M-389.872 515.705C266.235 -702.604 405.168 481.058 564.282 355.151" stroke="black" stroke-width="2.9355" stroke-miterlimit="10" stroke-linecap="round" stroke-linejoin="round" stroke-dasharray="1 1"/>
<path d="M-387.865 534.953C279.441 -709.171 418.163 475.849 568.508 389.118" stroke="black" stroke-width="3" stroke-miterlimit="10" stroke-linecap="round" stroke-linejoin="round" stroke-dasharray="1 1"/>
<path d="M-542.013 72.0862C-221.038 -274.384 -187.018 1709.33 519.696 -19.6266" stroke="black" stroke-miterlimit="10" stroke-linecap="round" stroke-linejoin="round"/>
<path d="M-541.167 99.9394C-209.839 -301.332 -167.261 1690.53 522.549 16.6053" stroke="black" stroke-width="0.9758" stroke-miterlimit="10" stroke-linecap="round" stroke-linejoin="round"/>
<path d="M-540.428 127.792C-198.64 -328.507 -147.715 1671.51 525.19 52.837" stroke="black" stroke-width="0.9516" stroke-miterlimit="10" stroke-linecap="round" stroke-linejoin="round"/>
<path d="M-539.583 155.646C-187.335 -355.455 -127.958 1652.72 528.043 88.8429" stroke="black" stroke-width="0.9274" stroke-miterlimit="10" stroke-linecap="round" stroke-linejoin="round"/>
<path d="M-538.737 183.726C-176.136 -382.175 -108.2 1634.15 530.79 125.302" stroke="black" stroke-width="0.9032" stroke-miterlimit="10" stroke-linecap="round" stroke-linejoin="round"/>
<path d="M-537.998 211.58C-164.936 -409.35 -88.6544 1615.35 533.432 161.534" stroke="black" stroke-width="0.879" stroke-miterlimit="10" stroke-linecap="round" stroke-linejoin="round"/>
<path d="M-537.153 239.433C-153.632 -436.298 -68.8978 1596.56 536.284 197.766" stroke="black" stroke-width="0.8548" stroke-miterlimit="10" stroke-linecap="round" stroke-linejoin="round"/>
<path d="M-536.308 267.514C-142.327 -463.245 -49.1407 1577.99 539.031 234.225" stroke="black" stroke-width="0.8306" stroke-miterlimit="10" stroke-linecap="round" stroke-linejoin="round"/>
<path d="M-535.568 295.367C-131.233 -490.193 -29.5947 1559.19 541.672 270.231" stroke="black" stroke-width="0.8065" stroke-miterlimit="10" stroke-linecap="round" stroke-linejoin="round"/>
<path d="M-534.723 323.22C-119.928 -517.141 -9.83756 1540.4 544.525 306.463" stroke="black" stroke-width="0.7823" stroke-miterlimit="10" stroke-linecap="round" stroke-linejoin="round"/>
<path d="M-533.877 351.074C-108.623 -544.315 9.91951 1521.37 547.272 342.695" stroke="black" stroke-width="0.7581" stroke-miterlimit="10" stroke-linecap="round" stroke-linejoin="round"/>
<path d="M-533.138 379.154C-97.53 -571.036 29.4651 1502.81 549.913 379.154" stroke="black" stroke-width="0.7339" stroke-miterlimit="10" stroke-linecap="round" stroke-linejoin="round"/>
<path d="M-532.292 407.007C-86.2246 -597.984 49.2228 1484.01 552.766 415.386" stroke="black" stroke-width="0.7097" stroke-miterlimit="10" stroke-linecap="round" stroke-linejoin="round"/>
<path d="M-531.447 434.861C-74.9197 -625.158 68.98 1465.22 555.513 451.618" stroke="black" stroke-width="0.6855" stroke-miterlimit="10" stroke-linecap="round" stroke-linejoin="round"/>
<path d="M-530.708 462.941C-63.8265 -651.879 88.5256 1446.65 558.154 487.851" stroke="black" stroke-width="0.6613" stroke-miterlimit="10" stroke-linecap="round" stroke-linejoin="round"/>
<path d="M-529.862 490.795C-52.5211 -678.827 108.283 1427.85 561.007 524.083" stroke="black" stroke-width="0.6371" stroke-miterlimit="10" stroke-linecap="round" stroke-linejoin="round"/>
<path d="M-529.017 518.649C-41.3219 -706.001 127.934 1409.06 563.754 560.316" stroke="black" stroke-width="0.6129" stroke-miterlimit="10" stroke-linecap="round" stroke-linejoin="round"/>
<path d="M-528.278 546.502C-30.123 -732.949 147.586 1390.03 566.395 596.547" stroke="black" stroke-width="0.5887" stroke-miterlimit="10" stroke-linecap="round" stroke-linejoin="round"/>
<path d="M-527.433 574.582C-18.8182 -759.896 167.343 1371.46 569.248 633.007" stroke="black" stroke-width="0.5645" stroke-miterlimit="10" stroke-linecap="round" stroke-linejoin="round"/>
<path d="M-526.587 602.435C-7.5128 -786.845 187.1 1352.67 571.995 669.011" stroke="black" stroke-width="0.5403" stroke-miterlimit="10" stroke-linecap="round" stroke-linejoin="round"/>
<path d="M-525.848 630.288C3.68621 -813.792 206.752 1333.87 574.742 705.244" stroke="black" stroke-width="0.5161" stroke-miterlimit="10" stroke-linecap="round" stroke-linejoin="round"/>
<path d="M-525.002 658.369C14.8854 -840.739 226.403 1315.3 577.489 741.703" stroke="black" stroke-width="0.4919" stroke-miterlimit="10" stroke-linecap="round" stroke-linejoin="round"/>
<path d="M-524.157 686.222C26.1904 -867.687 246.16 1296.51 580.236 777.935" stroke="black" stroke-width="0.4677" stroke-miterlimit="10" stroke-linecap="round" stroke-linejoin="round"/>
<path d="M-523.417 714.076C37.3897 -894.635 265.812 1277.71 582.877 814.167" stroke="black" stroke-width="0.4435" stroke-miterlimit="10" stroke-linecap="round" stroke-linejoin="round"/>
<path d="M-522.573 741.929C48.5884 -921.809 285.463 1258.69 585.729 850.173" stroke="black" stroke-width="0.4194" stroke-miterlimit="10" stroke-linecap="round" stroke-linejoin="round"/>
<path d="M-521.727 770.009C59.8939 -948.531 305.221 1240.12 588.477 886.632" stroke="black" stroke-width="0.3952" stroke-miterlimit="10" stroke-linecap="round" stroke-linejoin="round"/>
<path d="M-520.988 797.863C71.0928 -975.478 324.872 1221.33 591.223 922.864" stroke="black" stroke-width="0.371" stroke-miterlimit="10" stroke-linecap="round" stroke-linejoin="round"/>
<path d="M-520.143 825.716C82.292 -1002.65 344.523 1202.53 593.97 959.096" stroke="black" stroke-width="0.3468" stroke-miterlimit="10" stroke-linecap="round" stroke-linejoin="round"/>
<path d="M-519.297 853.797C93.5973 -1029.37 364.281 1183.96 596.718 995.555" stroke="black" stroke-width="0.3226" stroke-miterlimit="10" stroke-linecap="round" stroke-linejoin="round"/>
<path d="M-518.558 881.649C104.796 -1056.55 383.932 1165.17 599.359 1031.56" stroke="black" stroke-width="0.2984" stroke-miterlimit="10" stroke-linecap="round" stroke-linejoin="round"/>
<path d="M-517.712 909.503C115.995 -1083.5 403.584 1146.37 602.212 1067.79" stroke="black" stroke-width="0.2742" stroke-miterlimit="10" stroke-linecap="round" stroke-linejoin="round"/>
<path d="M-516.867 937.356C127.3 -1110.44 423.34 1127.58 604.958 1104.02" stroke="black" stroke-width="0.25" stroke-miterlimit="10" stroke-linecap="round" stroke-linejoin="round"/>
<path d="M495.185 937.583C105.325 1298.55 67.1838 579.11 -413.433 1015.93" stroke="black" stroke-width="2.7419" stroke-miterlimit="10" stroke-linecap="round" stroke-linejoin="round" stroke-dasharray="1 1"/>
<path d="M496.453 916.975C96.0269 1300.58 53.8712 557.37 -414.384 978.117" stroke="black" stroke-width="2.6774" stroke-miterlimit="10" stroke-linecap="round" stroke-linejoin="round" stroke-dasharray="1 1"/>
<path d="M497.72 896.369C86.7295 1302.62 40.5591 535.632 -415.334 940.3" stroke="black" stroke-width="2.6129" stroke-miterlimit="10" stroke-linecap="round" stroke-linejoin="round" stroke-dasharray="1 1"/>
<path d="M498.883 875.761C77.4319 1304.66 27.2467 513.892 -416.391 902.256" stroke="black" stroke-width="2.5484" stroke-miterlimit="10" stroke-linecap="round" stroke-linejoin="round" stroke-dasharray="1 1"/>
<path d="M500.151 854.928C68.1347 1306.47 14.0402 491.927 -417.342 864.213" stroke="black" stroke-width="2.4839" stroke-miterlimit="10" stroke-linecap="round" stroke-linejoin="round" stroke-dasharray="1 1"/>
<path d="M501.418 834.321C58.8368 1308.51 0.727592 470.187 -418.293 826.169" stroke="black" stroke-width="2.4194" stroke-miterlimit="10" stroke-linecap="round" stroke-linejoin="round" stroke-dasharray="1 1"/>
<path d="M502.581 813.714C49.5398 1310.55 -12.5843 448.448 -419.349 788.352" stroke="black" stroke-width="2.3548" stroke-miterlimit="10" stroke-linecap="round" stroke-linejoin="round" stroke-dasharray="1 1"/>
<path d="M503.849 793.107C40.2423 1312.36 -25.8967 426.708 -420.406 750.534" stroke="black" stroke-width="2.2903" stroke-miterlimit="10" stroke-linecap="round" stroke-linejoin="round" stroke-dasharray="1 1"/>
<path d="M505.011 772.5C30.8393 1314.62 -39.2088 404.969 -421.356 712.49" stroke="black" stroke-width="2.2258" stroke-miterlimit="10" stroke-linecap="round" stroke-linejoin="round" stroke-dasharray="1 1"/>
<path d="M506.278 751.666C21.6473 1316.21 -52.5213 383.003 -422.413 674.446" stroke="black" stroke-width="2.1613" stroke-miterlimit="10" stroke-linecap="round" stroke-linejoin="round" stroke-dasharray="1 1"/>
<path d="M507.546 731.059C12.3496 1318.25 -65.8338 361.264 -423.364 636.629" stroke="black" stroke-width="2.0968" stroke-miterlimit="10" stroke-linecap="round" stroke-linejoin="round" stroke-dasharray="1 1"/>
<path d="M508.708 710.451C2.94626 1320.28 -79.1463 339.524 -424.421 598.584" stroke="black" stroke-width="2.0323" stroke-miterlimit="10" stroke-linecap="round" stroke-linejoin="round" stroke-dasharray="1 1"/>
<path d="M509.976 689.845C-6.35101 1322.32 -92.4583 317.559 -425.372 560.541" stroke="black" stroke-width="1.9677" stroke-miterlimit="10" stroke-linecap="round" stroke-linejoin="round" stroke-dasharray="1 1"/>
<path d="M511.244 669.011C-15.6483 1324.14 -105.77 295.819 -426.322 522.724" stroke="black" stroke-width="1.9032" stroke-miterlimit="10" stroke-linecap="round" stroke-linejoin="round" stroke-dasharray="1 1"/>
<path d="M512.406 648.404C-24.9459 1326.17 -118.977 274.08 -427.379 484.68" stroke="black" stroke-width="1.8387" stroke-miterlimit="10" stroke-linecap="round" stroke-linejoin="round" stroke-dasharray="1 1"/>
<path d="M513.674 627.797C-34.2436 1328.21 -132.29 252.341 -428.33 446.862" stroke="black" stroke-width="1.7742" stroke-miterlimit="10" stroke-linecap="round" stroke-linejoin="round" stroke-dasharray="1 1"/>
<path d="M514.942 607.19C-43.4353 1330.25 -145.602 230.375 -429.281 408.819" stroke="black" stroke-width="1.7097" stroke-miterlimit="10" stroke-linecap="round" stroke-linejoin="round" stroke-dasharray="1 1"/>
<path d="M516.104 586.356C-52.838 1332.06 -158.914 208.635 -430.337 370.774" stroke="black" stroke-width="1.6452" stroke-miterlimit="10" stroke-linecap="round" stroke-linejoin="round" stroke-dasharray="1 1"/>
<path d="M517.372 565.749C-62.1356 1333.87 -172.226 186.67 -431.394 332.731" stroke="black" stroke-width="1.5806" stroke-miterlimit="10" stroke-linecap="round" stroke-linejoin="round" stroke-dasharray="1 1"/>
<path d="M518.534 545.142C-71.4334 1335.91 -185.539 164.931 -432.345 294.914" stroke="black" stroke-width="1.5161" stroke-miterlimit="10" stroke-linecap="round" stroke-linejoin="round" stroke-dasharray="1 1"/>
<path d="M519.802 524.535C-80.7305 1337.95 -198.851 143.191 -433.401 257.096" stroke="black" stroke-width="1.4516" stroke-miterlimit="10" stroke-linecap="round" stroke-linejoin="round" stroke-dasharray="1 1"/>
<path d="M521.07 503.928C-90.0283 1339.99 -212.163 121.452 -434.352 219.052" stroke="black" stroke-width="1.3871" stroke-miterlimit="10" stroke-linecap="round" stroke-linejoin="round" stroke-dasharray="1 1"/>
<path d="M522.232 483.095C-99.3259 1341.8 -225.476 99.7126 -435.409 181.009" stroke="black" stroke-width="1.3226" stroke-miterlimit="10" stroke-linecap="round" stroke-linejoin="round" stroke-dasharray="1 1"/>
<path d="M523.5 462.488C-108.623 1343.84 -238.788 77.747 -436.359 143.191" stroke="black" stroke-width="1.2581" stroke-miterlimit="10" stroke-linecap="round" stroke-linejoin="round" stroke-dasharray="1 1"/>
<path d="M524.767 441.88C-117.921 1345.87 -252.101 56.0071 -437.417 105.147" stroke="black" stroke-width="1.1935" stroke-miterlimit="10" stroke-linecap="round" stroke-linejoin="round" stroke-dasharray="1 1"/>
<path d="M525.93 421.273C-127.218 1347.91 -265.412 34.2678 -438.367 67.3297" stroke="black" stroke-width="1.129" stroke-miterlimit="10" stroke-linecap="round" stroke-linejoin="round" stroke-dasharray="1 1"/>
<path d="M527.198 400.44C-136.516 1349.72 -278.619 12.3027 -439.423 29.0601" stroke="black" stroke-width="1.0645" stroke-miterlimit="10" stroke-linecap="round" stroke-linejoin="round" stroke-dasharray="1 1"/>
<path d="M528.36 379.833C-145.919 1351.76 -292.037 -9.43728 -440.48 -8.75792" stroke="black" stroke-miterlimit="10" stroke-linecap="round" stroke-linejoin="round" stroke-dasharray="1 1"/>
</g>
</g>
<g filter="url(#filter0_d_130_1435)">
<rect x="152.5" y="126" width="97" height="97" rx="48.5" fill="white"/>
<path d="M197.574 191.386C194.03 186.455 172.695 155.885 172.695 155.885H181.419L204.278 188.647H199.27L222.29 155.885H230.367L205.257 191.386C205.257 191.386 201.117 196.316 197.574 191.386Z" fill="#10B4B6"/>
<path d="M169.061 156.189C169.161 156.189 169.262 156.189 169.365 156.189C169.365 171.637 169.365 187.084 169.365 203C168.397 202.031 167.567 201.178 166.747 200.112C166.574 199.89 166.401 199.667 166.223 199.438C165.975 199.095 165.975 199.095 165.722 198.744C165.565 198.548 165.407 198.353 165.245 198.151C164.589 196.748 164.672 195.405 164.67 193.873C164.666 193.535 164.662 193.197 164.658 192.848C164.646 191.729 164.641 190.61 164.637 189.491C164.633 188.712 164.628 187.932 164.624 187.152C164.616 185.517 164.612 183.881 164.61 182.245C164.607 180.363 164.592 178.48 164.572 176.598C164.552 174.78 164.547 172.962 164.546 171.143C164.544 170.373 164.537 169.603 164.527 168.834C164.432 161.208 164.432 161.208 167.24 158.317C167.588 157.887 167.936 157.456 168.283 157.025C168.54 156.749 168.797 156.473 169.061 156.189Z" fill="#10B4B6"/>
<path d="M234.018 157.125C235.136 158.275 235.853 159.089 236.655 160.421C236.831 160.711 237.008 161.001 237.19 161.3C237.875 162.491 238.342 163.323 238.353 164.726C238.356 164.996 238.36 165.265 238.363 165.543C238.364 165.837 238.365 166.131 238.365 166.433C238.368 166.744 238.371 167.056 238.374 167.376C238.383 168.407 238.387 169.437 238.391 170.467C238.394 171.185 238.398 171.903 238.401 172.62C238.408 174.127 238.411 175.633 238.413 177.139C238.417 179.063 238.431 180.986 238.448 182.91C238.46 184.393 238.463 185.877 238.464 187.36C238.466 188.069 238.471 188.778 238.479 189.487C238.552 196.541 238.552 196.541 236.446 199.255C236.133 199.725 236.133 199.725 235.814 200.205C235.554 200.536 235.554 200.536 235.289 200.874C235.112 201.104 234.934 201.333 234.752 201.57C234.61 201.733 234.468 201.896 234.321 202.064C234.221 202.064 234.121 202.064 234.018 202.064C234.018 187.234 234.018 172.404 234.018 157.125Z" fill="#10B4B6"/>
<path d="M233.411 156.189C234.478 157.286 234.436 157.47 234.437 158.951C234.44 159.333 234.442 159.714 234.445 160.106C234.443 160.529 234.441 160.952 234.439 161.375C234.44 161.82 234.442 162.265 234.444 162.71C234.448 163.919 234.447 165.128 234.444 166.337C234.441 167.601 234.444 168.864 234.445 170.128C234.447 172.25 234.444 174.373 234.44 176.495C234.435 178.95 234.437 181.406 234.442 183.862C234.446 185.968 234.447 188.075 234.444 190.181C234.443 191.44 234.443 192.699 234.446 193.958C234.448 195.141 234.446 196.324 234.441 197.508C234.44 197.943 234.44 198.378 234.442 198.813C234.445 199.405 234.441 199.997 234.437 200.589C234.437 200.921 234.436 201.253 234.436 201.595C234.398 201.853 234.36 202.11 234.321 202.376C233.871 202.685 233.871 202.685 233.411 203C233.411 187.552 233.411 172.105 233.411 156.189Z" fill="#10B4B6"/>
<path d="M201.531 150.831L200.835 151.503C200.925 151.597 201.033 151.672 201.153 151.722C201.273 151.773 201.401 151.8 201.531 151.8C201.661 151.8 201.79 151.773 201.91 151.722C202.03 151.672 202.138 151.597 202.228 151.503L201.531 150.831ZM198.211 167.396C196.255 165.852 194.118 164.344 192.421 162.432C190.76 160.557 189.599 158.369 189.599 155.53H187.664C187.664 158.974 189.096 161.602 190.975 163.719C192.82 165.799 195.173 167.465 197.012 168.918L198.211 167.396ZM189.599 155.53C189.599 152.752 191.166 150.422 193.306 149.441C195.386 148.489 198.18 148.741 200.835 151.503L202.228 150.161C199.08 146.883 195.422 146.342 192.501 147.679C189.645 148.988 187.664 152.026 187.664 155.53H189.599ZM197.012 168.918C197.674 169.439 198.384 169.995 199.102 170.416C199.821 170.837 200.641 171.178 201.531 171.178V169.241C201.131 169.241 200.662 169.085 200.079 168.743C199.494 168.402 198.889 167.932 198.211 167.396L197.012 168.918ZM206.05 168.918C207.89 167.464 210.243 165.8 212.088 163.719C213.967 161.6 215.399 158.974 215.399 155.53H213.464C213.464 158.369 212.303 160.557 210.642 162.432C208.945 164.344 206.808 165.852 204.852 167.396L206.05 168.918ZM215.399 155.53C215.399 152.026 213.419 148.988 210.562 147.679C207.641 146.342 203.985 146.883 200.835 150.16L202.228 151.503C204.883 148.742 207.677 148.489 209.757 149.441C211.897 150.422 213.464 152.751 213.464 155.53H215.399ZM204.852 167.396C204.173 167.932 203.568 168.402 202.984 168.743C202.4 169.084 201.931 169.241 201.531 169.241V171.178C202.422 171.178 203.242 170.836 203.961 170.416C204.68 169.995 205.389 169.439 206.05 168.918L204.852 167.396Z" fill="#10B4B6"/>
<path d="M201.153 151.722C201.033 151.672 200.925 151.597 200.835 151.503C198.18 148.741 195.386 148.489 193.306 149.441C191.166 150.422 189.599 152.752 189.599 155.53C189.599 158.369 190.76 160.557 192.421 162.432C194.118 164.344 196.255 165.852 198.211 167.396C198.889 167.932 199.494 168.402 200.079 168.743C200.662 169.085 201.131 169.241 201.531 169.241C201.931 169.241 202.4 169.084 202.984 168.743C203.568 168.402 204.173 167.932 204.852 167.396C206.808 165.852 208.945 164.344 210.642 162.432C212.303 160.557 213.464 158.369 213.464 155.53C213.464 152.751 211.897 150.422 209.757 149.441C207.677 148.489 204.883 148.742 202.228 151.503C202.138 151.597 202.03 151.672 201.91 151.722C201.79 151.773 201.661 151.8 201.531 151.8C201.401 151.8 201.273 151.773 201.153 151.722Z" fill="#10B4B6"/>
</g>
<path d="M129.366 266V246.4H132.362L140.93 260.708H139.362L147.79 246.4H150.786L150.814 266H147.37L147.342 251.804H148.07L140.902 263.76H139.278L131.998 251.804H132.838V266H129.366ZM156.109 266V246.4H170.417V249.452H159.749V262.948H170.809V266H156.109ZM159.469 257.544V254.548H169.213V257.544H159.469ZM174.866 266V246.4H183.434C185.562 246.4 187.429 246.811 189.034 247.632C190.64 248.453 191.89 249.592 192.786 251.048C193.682 252.504 194.13 254.221 194.13 256.2C194.13 258.16 193.682 259.877 192.786 261.352C191.89 262.808 190.64 263.947 189.034 264.768C187.429 265.589 185.562 266 183.434 266H174.866ZM178.506 262.92H183.266C184.722 262.92 185.992 262.64 187.074 262.08C188.157 261.52 188.988 260.736 189.566 259.728C190.164 258.72 190.462 257.544 190.462 256.2C190.462 254.837 190.164 253.661 189.566 252.672C188.988 251.664 188.157 250.88 187.074 250.32C185.992 249.76 184.722 249.48 183.266 249.48H178.506V262.92ZM207.071 266.28C205.578 266.28 204.187 266.037 202.899 265.552C201.63 265.048 200.519 264.348 199.567 263.452C198.634 262.537 197.906 261.464 197.383 260.232C196.861 259 196.599 257.656 196.599 256.2C196.599 254.744 196.861 253.4 197.383 252.168C197.906 250.936 198.643 249.872 199.595 248.976C200.547 248.061 201.658 247.361 202.927 246.876C204.197 246.372 205.587 246.12 207.099 246.12C208.705 246.12 210.17 246.4 211.495 246.96C212.821 247.501 213.941 248.313 214.855 249.396L212.503 251.608C211.794 250.843 211.001 250.273 210.123 249.9C209.246 249.508 208.294 249.312 207.267 249.312C206.241 249.312 205.298 249.48 204.439 249.816C203.599 250.152 202.862 250.628 202.227 251.244C201.611 251.86 201.126 252.588 200.771 253.428C200.435 254.268 200.267 255.192 200.267 256.2C200.267 257.208 200.435 258.132 200.771 258.972C201.126 259.812 201.611 260.54 202.227 261.156C202.862 261.772 203.599 262.248 204.439 262.584C205.298 262.92 206.241 263.088 207.267 263.088C208.294 263.088 209.246 262.901 210.123 262.528C211.001 262.136 211.794 261.548 212.503 260.764L214.855 263.004C213.941 264.068 212.821 264.88 211.495 265.44C210.17 266 208.695 266.28 207.071 266.28ZM214.915 266L223.735 246.4H227.319L236.167 266H232.359L224.771 248.332H226.227L218.667 266H214.915ZM218.975 261.464L219.955 258.608H230.539L231.519 261.464H218.975ZM238.659 266V246.4H246.695C249.309 246.4 251.353 247.016 252.827 248.248C254.321 249.48 255.067 251.188 255.067 253.372C255.067 254.809 254.731 256.051 254.059 257.096C253.387 258.123 252.426 258.916 251.175 259.476C249.943 260.017 248.459 260.288 246.723 260.288H240.675L242.299 258.636V266H238.659ZM251.483 266L246.527 258.888H250.419L255.403 266H251.483ZM242.299 259.028L240.675 257.292H246.555C248.161 257.292 249.365 256.947 250.167 256.256C250.989 255.565 251.399 254.604 251.399 253.372C251.399 252.121 250.989 251.16 250.167 250.488C249.365 249.816 248.161 249.48 246.555 249.48H240.675L242.299 247.688V259.028ZM259.14 266V246.4H273.448V249.452H262.78V262.948H273.84V266H259.14ZM262.5 257.544V254.548H272.244V257.544H262.5Z" fill="white"/>
<path d="M54.621 287.2H55.845L52.485 304H51.261L54.621 287.2ZM40.029 304H38.805L42.165 287.2H43.389L40.029 304ZM53.013 296.008H41.469L41.685 294.928H53.229L53.013 296.008ZM63.2959 304.096C62.1759 304.096 61.1999 303.888 60.3679 303.472C59.5359 303.04 58.8879 302.432 58.4239 301.648C57.9759 300.864 57.7519 299.944 57.7519 298.888C57.7519 297.448 58.0559 296.168 58.6639 295.048C59.2879 293.912 60.1359 293.016 61.2079 292.36C62.2959 291.704 63.5359 291.376 64.9279 291.376C66.0639 291.376 67.0399 291.592 67.8559 292.024C68.6879 292.44 69.3279 293.04 69.7759 293.824C70.2399 294.592 70.4719 295.512 70.4719 296.584C70.4719 298.024 70.1599 299.312 69.5359 300.448C68.9279 301.568 68.0799 302.456 66.9919 303.112C65.9199 303.768 64.6879 304.096 63.2959 304.096ZM63.3919 303.016C64.5279 303.016 65.5359 302.744 66.4159 302.2C67.2959 301.656 67.9919 300.904 68.5039 299.944C69.0159 298.968 69.2719 297.872 69.2719 296.656C69.2719 295.312 68.8799 294.28 68.0959 293.56C67.3279 292.824 66.2399 292.456 64.8319 292.456C63.7119 292.456 62.7039 292.736 61.8079 293.296C60.9279 293.84 60.2319 294.592 59.7199 295.552C59.2079 296.512 58.9519 297.6 58.9519 298.816C58.9519 300.144 59.3359 301.176 60.1039 301.912C60.8879 302.648 61.9839 303.016 63.3919 303.016ZM90.6587 291.376C91.7947 291.376 92.7067 291.6 93.3947 292.048C94.0987 292.48 94.5787 293.104 94.8347 293.92C95.0907 294.72 95.1067 295.664 94.8827 296.752L93.4187 304H92.2187L93.6827 296.752C93.9387 295.424 93.7947 294.376 93.2507 293.608C92.7227 292.84 91.7787 292.456 90.4187 292.456C89.0747 292.456 87.9387 292.832 87.0107 293.584C86.0827 294.32 85.4667 295.424 85.1627 296.896L83.7227 304H82.5227L83.9867 296.752C84.2427 295.424 84.0987 294.376 83.5547 293.608C83.0267 292.84 82.0827 292.456 80.7227 292.456C79.3467 292.456 78.1947 292.856 77.2667 293.656C76.3387 294.456 75.7147 295.632 75.3947 297.184L74.0267 304H72.8267L75.3227 291.472H76.4987L75.7787 295.096L75.4667 294.784C76.0587 293.6 76.8347 292.736 77.7947 292.192C78.7547 291.648 79.8347 291.376 81.0347 291.376C81.9307 291.376 82.6907 291.528 83.3147 291.832C83.9547 292.136 84.4427 292.568 84.7787 293.128C85.1147 293.688 85.2987 294.36 85.3307 295.144L84.7307 295C85.3387 293.784 86.1547 292.88 87.1787 292.288C88.2027 291.68 89.3627 291.376 90.6587 291.376ZM103.894 304.096C102.726 304.096 101.71 303.888 100.846 303.472C99.9816 303.04 99.3176 302.432 98.8536 301.648C98.4056 300.864 98.1816 299.928 98.1816 298.84C98.1816 297.416 98.4776 296.144 99.0696 295.024C99.6776 293.904 100.494 293.016 101.518 292.36C102.558 291.704 103.726 291.376 105.022 291.376C106.126 291.376 107.07 291.584 107.854 292C108.638 292.416 109.246 293.016 109.678 293.8C110.126 294.568 110.35 295.504 110.35 296.608C110.35 296.848 110.334 297.088 110.302 297.328C110.27 297.568 110.238 297.792 110.206 298H99.0936L99.2616 297.064H109.63L109.15 297.472C109.326 296.368 109.254 295.448 108.934 294.712C108.614 293.96 108.11 293.392 107.422 293.008C106.75 292.608 105.942 292.408 104.998 292.408C103.91 292.408 102.934 292.688 102.07 293.248C101.222 293.792 100.558 294.544 100.078 295.504C99.5976 296.448 99.3576 297.544 99.3576 298.792C99.3576 300.152 99.7496 301.2 100.534 301.936C101.318 302.656 102.47 303.016 103.99 303.016C104.886 303.016 105.702 302.872 106.438 302.584C107.19 302.28 107.806 301.864 108.286 301.336L108.838 302.176C108.294 302.768 107.582 303.24 106.702 303.592C105.838 303.928 104.902 304.096 103.894 304.096ZM135.105 287.2H136.329L132.969 304H131.745L135.105 287.2ZM120.513 304H119.289L122.649 287.2H123.873L120.513 304ZM133.497 296.008H121.953L122.169 294.928H133.713L133.497 296.008ZM143.948 304.096C142.78 304.096 141.764 303.888 140.9 303.472C140.036 303.04 139.372 302.432 138.908 301.648C138.46 300.864 138.236 299.928 138.236 298.84C138.236 297.416 138.532 296.144 139.124 295.024C139.732 293.904 140.548 293.016 141.572 292.36C142.612 291.704 143.78 291.376 145.076 291.376C146.18 291.376 147.124 291.584 147.908 292C148.692 292.416 149.3 293.016 149.732 293.8C150.18 294.568 150.404 295.504 150.404 296.608C150.404 296.848 150.388 297.088 150.356 297.328C150.324 297.568 150.292 297.792 150.26 298H139.148L139.316 297.064H149.684L149.204 297.472C149.38 296.368 149.308 295.448 148.988 294.712C148.668 293.96 148.164 293.392 147.476 293.008C146.804 292.608 145.996 292.408 145.052 292.408C143.964 292.408 142.988 292.688 142.124 293.248C141.276 293.792 140.612 294.544 140.132 295.504C139.652 296.448 139.412 297.544 139.412 298.792C139.412 300.152 139.804 301.2 140.588 301.936C141.372 302.656 142.524 303.016 144.044 303.016C144.94 303.016 145.756 302.872 146.492 302.584C147.244 302.28 147.86 301.864 148.34 301.336L148.892 302.176C148.348 302.768 147.636 303.24 146.756 303.592C145.892 303.928 144.956 304.096 143.948 304.096ZM157.98 304.096C156.908 304.096 155.964 303.888 155.148 303.472C154.332 303.056 153.7 302.456 153.252 301.672C152.804 300.888 152.58 299.96 152.58 298.888C152.58 297.8 152.748 296.8 153.084 295.888C153.436 294.976 153.932 294.184 154.572 293.512C155.212 292.84 155.964 292.32 156.828 291.952C157.692 291.568 158.636 291.376 159.66 291.376C160.764 291.376 161.7 291.576 162.468 291.976C163.236 292.36 163.82 292.928 164.22 293.68C164.636 294.416 164.844 295.312 164.844 296.368C164.86 297.856 164.58 299.184 164.004 300.352C163.444 301.52 162.644 302.44 161.604 303.112C160.58 303.768 159.372 304.096 157.98 304.096ZM158.22 303.016C159.356 303.016 160.364 302.744 161.244 302.2C162.124 301.656 162.82 300.904 163.332 299.944C163.844 298.968 164.1 297.872 164.1 296.656C164.1 295.312 163.708 294.28 162.924 293.56C162.156 292.824 161.068 292.456 159.66 292.456C158.54 292.456 157.532 292.736 156.636 293.296C155.756 293.84 155.06 294.592 154.548 295.552C154.036 296.512 153.78 297.6 153.78 298.816C153.78 300.144 154.164 301.176 154.932 301.912C155.716 302.648 156.812 303.016 158.22 303.016ZM162.78 304L163.548 300.088L164.244 297.904L164.412 295.6L165.228 291.472H166.428L163.932 304H162.78ZM168.967 304L172.519 286.192H173.719L170.167 304H168.967ZM178.945 304.096C178.257 304.096 177.673 303.952 177.193 303.664C176.729 303.376 176.409 302.96 176.233 302.416C176.057 301.872 176.041 301.224 176.185 300.472L178.537 288.736H179.737L177.409 300.376C177.233 301.256 177.289 301.928 177.577 302.392C177.881 302.84 178.433 303.064 179.233 303.064C179.617 303.064 179.977 303.008 180.313 302.896C180.665 302.768 180.985 302.592 181.273 302.368L181.633 303.256C181.249 303.56 180.817 303.776 180.337 303.904C179.873 304.032 179.409 304.096 178.945 304.096ZM175.465 292.504L175.657 291.472H183.169L182.977 292.504H175.465ZM193.187 291.376C194.323 291.376 195.243 291.6 195.947 292.048C196.667 292.48 197.155 293.104 197.411 293.92C197.683 294.72 197.707 295.664 197.483 296.752L196.043 304H194.843L196.283 296.752C196.555 295.424 196.403 294.376 195.827 293.608C195.267 292.84 194.283 292.456 192.875 292.456C191.451 292.456 190.259 292.856 189.299 293.656C188.339 294.44 187.699 295.616 187.379 297.184L186.011 304H184.811L188.363 286.192H189.563L187.787 295.096L187.451 294.784C188.043 293.6 188.835 292.736 189.827 292.192C190.819 291.648 191.939 291.376 193.187 291.376ZM215.188 304.12C213.54 304.12 212.14 303.832 210.988 303.256C209.836 302.68 208.956 301.872 208.348 300.832C207.756 299.792 207.46 298.584 207.46 297.208C207.46 295.848 207.692 294.56 208.156 293.344C208.62 292.128 209.292 291.048 210.172 290.104C211.052 289.16 212.116 288.424 213.364 287.896C214.628 287.352 216.052 287.08 217.636 287.08C218.948 287.08 220.108 287.28 221.116 287.68C222.124 288.08 222.908 288.648 223.468 289.384L222.604 290.176C222.06 289.52 221.364 289.032 220.516 288.712C219.684 288.376 218.692 288.208 217.54 288.208C216.18 288.208 214.956 288.448 213.868 288.928C212.78 289.392 211.852 290.04 211.084 290.872C210.316 291.688 209.724 292.64 209.308 293.728C208.892 294.8 208.684 295.944 208.684 297.16C208.684 298.312 208.932 299.328 209.428 300.208C209.924 301.088 210.66 301.776 211.636 302.272C212.628 302.752 213.844 302.992 215.284 302.992C216.436 302.992 217.476 302.824 218.404 302.488C219.348 302.136 220.156 301.632 220.828 300.976L221.572 301.816C220.852 302.536 219.932 303.104 218.812 303.52C217.692 303.92 216.484 304.12 215.188 304.12ZM228.925 304.096C227.853 304.096 226.909 303.888 226.093 303.472C225.277 303.056 224.645 302.456 224.197 301.672C223.749 300.888 223.525 299.96 223.525 298.888C223.525 297.8 223.693 296.8 224.029 295.888C224.381 294.976 224.877 294.184 225.517 293.512C226.157 292.84 226.909 292.32 227.773 291.952C228.637 291.568 229.581 291.376 230.605 291.376C231.709 291.376 232.645 291.576 233.413 291.976C234.181 292.36 234.765 292.928 235.165 293.68C235.581 294.416 235.789 295.312 235.789 296.368C235.805 297.856 235.525 299.184 234.949 300.352C234.389 301.52 233.589 302.44 232.549 303.112C231.525 303.768 230.317 304.096 228.925 304.096ZM229.165 303.016C230.301 303.016 231.309 302.744 232.189 302.2C233.069 301.656 233.765 300.904 234.277 299.944C234.789 298.968 235.045 297.872 235.045 296.656C235.045 295.312 234.653 294.28 233.869 293.56C233.101 292.824 232.013 292.456 230.605 292.456C229.485 292.456 228.477 292.736 227.581 293.296C226.701 293.84 226.005 294.592 225.493 295.552C224.981 296.512 224.725 297.6 224.725 298.816C224.725 300.144 225.109 301.176 225.877 301.912C226.661 302.648 227.757 303.016 229.165 303.016ZM233.725 304L234.493 300.088L235.189 297.904L235.357 295.6L236.173 291.472H237.373L234.877 304H233.725ZM239.913 304L242.409 291.472H243.585L242.817 295.24L242.673 294.808C243.217 293.672 243.953 292.816 244.881 292.24C245.809 291.664 246.977 291.376 248.385 291.376L248.169 292.552C248.105 292.552 248.041 292.552 247.977 292.552C247.913 292.536 247.849 292.528 247.785 292.528C246.377 292.528 245.209 292.952 244.281 293.8C243.369 294.632 242.745 295.888 242.409 297.568L241.113 304H239.913ZM254.55 304.096C253.382 304.096 252.366 303.888 251.502 303.472C250.638 303.04 249.974 302.432 249.51 301.648C249.062 300.864 248.838 299.928 248.838 298.84C248.838 297.416 249.134 296.144 249.726 295.024C250.334 293.904 251.15 293.016 252.174 292.36C253.214 291.704 254.382 291.376 255.678 291.376C256.782 291.376 257.726 291.584 258.51 292C259.294 292.416 259.902 293.016 260.334 293.8C260.782 294.568 261.006 295.504 261.006 296.608C261.006 296.848 260.99 297.088 260.958 297.328C260.926 297.568 260.894 297.792 260.862 298H249.75L249.918 297.064H260.286L259.806 297.472C259.982 296.368 259.91 295.448 259.59 294.712C259.27 293.96 258.766 293.392 258.078 293.008C257.406 292.608 256.598 292.408 255.654 292.408C254.566 292.408 253.59 292.688 252.726 293.248C251.878 293.792 251.214 294.544 250.734 295.504C250.254 296.448 250.014 297.544 250.014 298.792C250.014 300.152 250.406 301.2 251.19 301.936C251.974 302.656 253.126 303.016 254.646 303.016C255.542 303.016 256.358 302.872 257.094 302.584C257.846 302.28 258.462 301.864 258.942 301.336L259.494 302.176C258.95 302.768 258.238 303.24 257.358 303.592C256.494 303.928 255.558 304.096 254.55 304.096ZM274.626 304.12C273.81 304.12 273.01 304.024 272.226 303.832C271.458 303.624 270.762 303.352 270.138 303.016C269.53 302.68 269.05 302.304 268.698 301.888L269.346 300.952C269.698 301.352 270.154 301.712 270.714 302.032C271.29 302.352 271.922 302.6 272.61 302.776C273.314 302.952 274.018 303.04 274.722 303.04C275.762 303.04 276.682 302.896 277.482 302.608C278.298 302.32 278.93 301.904 279.378 301.36C279.826 300.8 280.05 300.12 280.05 299.32C280.05 298.728 279.882 298.248 279.546 297.88C279.226 297.512 278.802 297.208 278.274 296.968C277.762 296.728 277.186 296.528 276.546 296.368C275.922 296.192 275.29 296 274.65 295.792C274.026 295.584 273.45 295.336 272.922 295.048C272.41 294.744 271.986 294.352 271.65 293.872C271.33 293.392 271.17 292.784 271.17 292.048C271.17 290.992 271.45 290.096 272.01 289.36C272.586 288.624 273.362 288.064 274.338 287.68C275.314 287.28 276.426 287.08 277.674 287.08C278.634 287.08 279.562 287.208 280.458 287.464C281.354 287.704 282.114 288.064 282.738 288.544L282.162 289.552C281.57 289.104 280.882 288.76 280.098 288.52C279.314 288.28 278.49 288.16 277.626 288.16C276.602 288.16 275.69 288.312 274.89 288.616C274.106 288.904 273.49 289.328 273.042 289.888C272.61 290.448 272.394 291.128 272.394 291.928C272.394 292.52 272.554 293.008 272.874 293.392C273.194 293.76 273.61 294.072 274.122 294.328C274.65 294.568 275.234 294.776 275.874 294.952C276.514 295.128 277.146 295.32 277.77 295.528C278.394 295.72 278.97 295.968 279.498 296.272C280.026 296.56 280.45 296.936 280.77 297.4C281.106 297.864 281.274 298.456 281.274 299.176C281.274 300.248 280.978 301.152 280.386 301.888C279.81 302.624 279.018 303.184 278.01 303.568C277.018 303.936 275.89 304.12 274.626 304.12ZM289.683 304.096C288.515 304.096 287.499 303.888 286.635 303.472C285.771 303.04 285.107 302.432 284.643 301.648C284.195 300.864 283.971 299.928 283.971 298.84C283.971 297.416 284.267 296.144 284.859 295.024C285.467 293.904 286.283 293.016 287.307 292.36C288.347 291.704 289.515 291.376 290.811 291.376C291.915 291.376 292.859 291.584 293.643 292C294.427 292.416 295.035 293.016 295.467 293.8C295.915 294.568 296.139 295.504 296.139 296.608C296.139 296.848 296.123 297.088 296.091 297.328C296.059 297.568 296.027 297.792 295.995 298H284.883L285.051 297.064H295.419L294.939 297.472C295.115 296.368 295.043 295.448 294.723 294.712C294.403 293.96 293.899 293.392 293.211 293.008C292.539 292.608 291.731 292.408 290.787 292.408C289.699 292.408 288.723 292.688 287.859 293.248C287.011 293.792 286.347 294.544 285.867 295.504C285.387 296.448 285.147 297.544 285.147 298.792C285.147 300.152 285.539 301.2 286.323 301.936C287.107 302.656 288.259 303.016 289.779 303.016C290.675 303.016 291.491 302.872 292.227 302.584C292.979 302.28 293.595 301.864 294.075 301.336L294.627 302.176C294.083 302.768 293.371 303.24 292.491 303.592C291.627 303.928 290.691 304.096 289.683 304.096ZM298.506 304L301.002 291.472H302.178L301.41 295.24L301.266 294.808C301.81 293.672 302.546 292.816 303.474 292.24C304.402 291.664 305.57 291.376 306.978 291.376L306.762 292.552C306.698 292.552 306.634 292.552 306.57 292.552C306.506 292.536 306.442 292.528 306.378 292.528C304.97 292.528 303.802 292.952 302.874 293.8C301.962 294.632 301.338 295.888 301.002 297.568L299.706 304H298.506ZM311.519 304L308.351 291.472H309.575L312.527 303.328H311.951L319.607 291.472H320.879L312.743 304H311.519ZM320.983 304L323.479 291.472H324.679L322.183 304H320.983ZM324.823 288.424C324.551 288.424 324.327 288.336 324.151 288.16C323.991 287.984 323.911 287.776 323.911 287.536C323.911 287.248 324.007 287 324.199 286.792C324.407 286.584 324.663 286.48 324.967 286.48C325.223 286.48 325.439 286.568 325.615 286.744C325.791 286.92 325.879 287.128 325.879 287.368C325.879 287.672 325.775 287.928 325.567 288.136C325.375 288.328 325.127 288.424 324.823 288.424ZM332.689 304.096C331.537 304.096 330.537 303.888 329.689 303.472C328.841 303.04 328.185 302.432 327.721 301.648C327.273 300.864 327.049 299.944 327.049 298.888C327.049 297.432 327.353 296.144 327.961 295.024C328.585 293.888 329.441 293 330.529 292.36C331.617 291.704 332.857 291.376 334.249 291.376C335.369 291.376 336.329 291.576 337.129 291.976C337.945 292.36 338.569 292.944 339.001 293.728L338.017 294.328C337.633 293.688 337.121 293.216 336.481 292.912C335.841 292.608 335.073 292.456 334.177 292.456C333.025 292.456 332.001 292.736 331.105 293.296C330.225 293.84 329.529 294.592 329.017 295.552C328.505 296.512 328.249 297.6 328.249 298.816C328.249 300.144 328.641 301.176 329.425 301.912C330.209 302.648 331.329 303.016 332.785 303.016C333.617 303.016 334.393 302.864 335.113 302.56C335.849 302.24 336.457 301.784 336.937 301.192L337.777 301.864C337.233 302.568 336.505 303.12 335.593 303.52C334.697 303.904 333.729 304.096 332.689 304.096ZM345.862 304.096C344.694 304.096 343.678 303.888 342.814 303.472C341.95 303.04 341.286 302.432 340.822 301.648C340.374 300.864 340.15 299.928 340.15 298.84C340.15 297.416 340.446 296.144 341.038 295.024C341.646 293.904 342.462 293.016 343.486 292.36C344.526 291.704 345.694 291.376 346.99 291.376C348.094 291.376 349.038 291.584 349.822 292C350.606 292.416 351.214 293.016 351.646 293.8C352.094 294.568 352.318 295.504 352.318 296.608C352.318 296.848 352.302 297.088 352.27 297.328C352.238 297.568 352.206 297.792 352.174 298H341.062L341.23 297.064H351.598L351.118 297.472C351.294 296.368 351.222 295.448 350.902 294.712C350.582 293.96 350.078 293.392 349.39 293.008C348.718 292.608 347.91 292.408 346.966 292.408C345.878 292.408 344.902 292.688 344.038 293.248C343.19 293.792 342.526 294.544 342.046 295.504C341.566 296.448 341.326 297.544 341.326 298.792C341.326 300.152 341.718 301.2 342.502 301.936C343.286 302.656 344.438 303.016 345.958 303.016C346.854 303.016 347.67 302.872 348.406 302.584C349.158 302.28 349.774 301.864 350.254 301.336L350.806 302.176C350.262 302.768 349.55 303.24 348.67 303.592C347.806 303.928 346.87 304.096 345.862 304.096ZM358.118 304.096C357.126 304.096 356.182 303.952 355.286 303.664C354.406 303.36 353.726 302.976 353.246 302.512L353.894 301.576C354.358 302.024 354.974 302.384 355.742 302.656C356.526 302.912 357.35 303.04 358.214 303.04C359.51 303.04 360.51 302.808 361.214 302.344C361.934 301.88 362.294 301.248 362.294 300.448C362.294 299.904 362.118 299.496 361.766 299.224C361.43 298.952 360.982 298.744 360.422 298.6C359.878 298.456 359.294 298.32 358.67 298.192C358.062 298.064 357.478 297.904 356.918 297.712C356.374 297.52 355.926 297.224 355.574 296.824C355.238 296.424 355.07 295.872 355.07 295.168C355.07 294.4 355.286 293.736 355.718 293.176C356.15 292.6 356.758 292.16 357.542 291.856C358.326 291.536 359.246 291.376 360.302 291.376C361.086 291.376 361.854 291.488 362.606 291.712C363.374 291.92 363.982 292.216 364.43 292.6L363.878 293.536C363.398 293.168 362.83 292.896 362.174 292.72C361.534 292.528 360.878 292.432 360.206 292.432C358.974 292.432 358.006 292.672 357.302 293.152C356.598 293.632 356.246 294.264 356.246 295.048C356.246 295.592 356.422 296.008 356.774 296.296C357.126 296.584 357.574 296.8 358.118 296.944C358.662 297.088 359.246 297.224 359.87 297.352C360.494 297.464 361.078 297.624 361.622 297.832C362.182 298.024 362.63 298.312 362.966 298.696C363.318 299.08 363.494 299.624 363.494 300.328C363.494 301.112 363.27 301.792 362.822 302.368C362.374 302.928 361.75 303.36 360.95 303.664C360.15 303.952 359.206 304.096 358.118 304.096Z" fill="white"/>
<path d="M68.0879 816L61.5919 796.4H65.3719L71.1679 814.124H69.2919L75.3119 796.4H78.6719L84.5239 814.124H82.7039L88.6399 796.4H92.1119L85.6159 816H81.7519L76.4039 800.012H77.4119L71.9799 816H68.0879ZM100.648 816.196C98.9869 816.196 97.5309 815.869 96.2802 815.216C95.0482 814.544 94.0869 813.629 93.3962 812.472C92.7242 811.315 92.3882 809.999 92.3882 808.524C92.3882 807.031 92.7149 805.715 93.3682 804.576C94.0402 803.419 94.9549 802.513 96.1122 801.86C97.2882 801.207 98.6229 800.88 100.116 800.88C101.572 800.88 102.87 801.197 104.008 801.832C105.147 802.467 106.043 803.363 106.696 804.52C107.35 805.677 107.676 807.04 107.676 808.608C107.676 808.757 107.667 808.925 107.648 809.112C107.648 809.299 107.639 809.476 107.62 809.644H95.1602V807.32H105.772L104.4 808.048C104.419 807.189 104.242 806.433 103.868 805.78C103.495 805.127 102.982 804.613 102.328 804.24C101.694 803.867 100.956 803.68 100.116 803.68C99.2576 803.68 98.5016 803.867 97.8482 804.24C97.2136 804.613 96.7096 805.136 96.3362 805.808C95.9816 806.461 95.8042 807.236 95.8042 808.132V808.692C95.8042 809.588 96.0096 810.381 96.4202 811.072C96.8309 811.763 97.4096 812.295 98.1562 812.668C98.9029 813.041 99.7616 813.228 100.732 813.228C101.572 813.228 102.328 813.097 103 812.836C103.672 812.575 104.27 812.164 104.792 811.604L106.668 813.76C105.996 814.544 105.147 815.151 104.12 815.58C103.112 815.991 101.955 816.196 100.648 816.196ZM128.184 816.28C126.691 816.28 125.3 816.037 124.012 815.552C122.743 815.048 121.632 814.348 120.68 813.452C119.747 812.537 119.019 811.464 118.496 810.232C117.974 809 117.712 807.656 117.712 806.2C117.712 804.744 117.974 803.4 118.496 802.168C119.019 800.936 119.756 799.872 120.708 798.976C121.66 798.061 122.771 797.361 124.04 796.876C125.31 796.372 126.7 796.12 128.212 796.12C129.818 796.12 131.283 796.4 132.608 796.96C133.934 797.501 135.054 798.313 135.968 799.396L133.616 801.608C132.907 800.843 132.114 800.273 131.236 799.9C130.359 799.508 129.407 799.312 128.38 799.312C127.354 799.312 126.411 799.48 125.552 799.816C124.712 800.152 123.975 800.628 123.34 801.244C122.724 801.86 122.239 802.588 121.884 803.428C121.548 804.268 121.38 805.192 121.38 806.2C121.38 807.208 121.548 808.132 121.884 808.972C122.239 809.812 122.724 810.54 123.34 811.156C123.975 811.772 124.712 812.248 125.552 812.584C126.411 812.92 127.354 813.088 128.38 813.088C129.407 813.088 130.359 812.901 131.236 812.528C132.114 812.136 132.907 811.548 133.616 810.764L135.968 813.004C135.054 814.068 133.934 814.88 132.608 815.44C131.283 816 129.808 816.28 128.184 816.28ZM148.196 816V812.976L148 812.332V807.04C148 806.013 147.692 805.22 147.076 804.66C146.46 804.081 145.526 803.792 144.276 803.792C143.436 803.792 142.605 803.923 141.784 804.184C140.981 804.445 140.3 804.809 139.74 805.276L138.368 802.728C139.17 802.112 140.122 801.655 141.224 801.356C142.344 801.039 143.501 800.88 144.696 800.88C146.861 800.88 148.532 801.403 149.708 802.448C150.902 803.475 151.5 805.071 151.5 807.236V816H148.196ZM143.492 816.196C142.372 816.196 141.392 816.009 140.552 815.636C139.712 815.244 139.058 814.712 138.592 814.04C138.144 813.349 137.92 812.575 137.92 811.716C137.92 810.876 138.116 810.12 138.508 809.448C138.918 808.776 139.581 808.244 140.496 807.852C141.41 807.46 142.624 807.264 144.136 807.264H148.476V809.588H144.388C143.193 809.588 142.39 809.784 141.98 810.176C141.569 810.549 141.364 811.016 141.364 811.576C141.364 812.211 141.616 812.715 142.12 813.088C142.624 813.461 143.324 813.648 144.22 813.648C145.078 813.648 145.844 813.452 146.516 813.06C147.206 812.668 147.701 812.089 148 811.324L148.588 813.424C148.252 814.301 147.645 814.983 146.768 815.468C145.909 815.953 144.817 816.196 143.492 816.196ZM155.991 816V801.048H159.323V805.164L158.931 803.96C159.379 802.952 160.079 802.187 161.031 801.664C162.002 801.141 163.206 800.88 164.643 800.88V804.212C164.494 804.175 164.354 804.156 164.223 804.156C164.093 804.137 163.962 804.128 163.831 804.128C162.506 804.128 161.451 804.52 160.667 805.304C159.883 806.069 159.491 807.217 159.491 808.748V816H155.991ZM174.504 816.196C172.842 816.196 171.386 815.869 170.136 815.216C168.904 814.544 167.942 813.629 167.252 812.472C166.58 811.315 166.244 809.999 166.244 808.524C166.244 807.031 166.57 805.715 167.224 804.576C167.896 803.419 168.81 802.513 169.968 801.86C171.144 801.207 172.478 800.88 173.972 800.88C175.428 800.88 176.725 801.197 177.864 801.832C179.002 802.467 179.898 803.363 180.552 804.52C181.205 805.677 181.532 807.04 181.532 808.608C181.532 808.757 181.522 808.925 181.504 809.112C181.504 809.299 181.494 809.476 181.476 809.644H169.016V807.32H179.628L178.256 808.048C178.274 807.189 178.097 806.433 177.724 805.78C177.35 805.127 176.837 804.613 176.184 804.24C175.549 803.867 174.812 803.68 173.972 803.68C173.113 803.68 172.357 803.867 171.704 804.24C171.069 804.613 170.565 805.136 170.192 805.808C169.837 806.461 169.66 807.236 169.66 808.132V808.692C169.66 809.588 169.865 810.381 170.276 811.072C170.686 811.763 171.265 812.295 172.012 812.668C172.758 813.041 173.617 813.228 174.588 813.228C175.428 813.228 176.184 813.097 176.856 812.836C177.528 812.575 178.125 812.164 178.648 811.604L180.524 813.76C179.852 814.544 179.002 815.151 177.976 815.58C176.968 815.991 175.81 816.196 174.504 816.196ZM190.196 816L199.016 796.4H202.6L211.448 816H207.64L200.052 798.332H201.508L193.948 816H190.196ZM194.256 811.464L195.236 808.608H205.82L206.8 811.464H194.256ZM221.893 816.196C220.623 816.196 219.494 815.916 218.505 815.356C217.515 814.796 216.731 813.956 216.153 812.836C215.593 811.697 215.313 810.26 215.313 808.524C215.313 806.769 215.602 805.332 216.181 804.212C216.778 803.092 217.571 802.261 218.561 801.72C219.569 801.16 220.679 800.88 221.893 800.88C223.367 800.88 224.665 801.197 225.785 801.832C226.923 802.467 227.819 803.353 228.473 804.492C229.145 805.631 229.481 806.975 229.481 808.524C229.481 810.073 229.145 811.417 228.473 812.556C227.819 813.695 226.923 814.591 225.785 815.244C224.665 815.879 223.367 816.196 221.893 816.196ZM213.605 816V795.224H217.105V804.52L216.825 808.496L216.937 812.472V816H213.605ZM221.501 813.2C222.341 813.2 223.087 813.013 223.741 812.64C224.413 812.267 224.945 811.725 225.337 811.016C225.729 810.307 225.925 809.476 225.925 808.524C225.925 807.553 225.729 806.723 225.337 806.032C224.945 805.323 224.413 804.781 223.741 804.408C223.087 804.035 222.341 803.848 221.501 803.848C220.661 803.848 219.905 804.035 219.233 804.408C218.561 804.781 218.029 805.323 217.637 806.032C217.245 806.723 217.049 807.553 217.049 808.524C217.049 809.476 217.245 810.307 217.637 811.016C218.029 811.725 218.561 812.267 219.233 812.64C219.905 813.013 220.661 813.2 221.501 813.2ZM239.52 816.196C237.989 816.196 236.627 815.869 235.432 815.216C234.237 814.544 233.295 813.629 232.604 812.472C231.913 811.315 231.568 809.999 231.568 808.524C231.568 807.031 231.913 805.715 232.604 804.576C233.295 803.419 234.237 802.513 235.432 801.86C236.627 801.207 237.989 800.88 239.52 800.88C241.069 800.88 242.441 801.207 243.636 801.86C244.849 802.513 245.792 803.409 246.464 804.548C247.155 805.687 247.5 807.012 247.5 808.524C247.5 809.999 247.155 811.315 246.464 812.472C245.792 813.629 244.849 814.544 243.636 815.216C242.441 815.869 241.069 816.196 239.52 816.196ZM239.52 813.2C240.379 813.2 241.144 813.013 241.816 812.64C242.488 812.267 243.011 811.725 243.384 811.016C243.776 810.307 243.972 809.476 243.972 808.524C243.972 807.553 243.776 806.723 243.384 806.032C243.011 805.323 242.488 804.781 241.816 804.408C241.144 804.035 240.388 803.848 239.548 803.848C238.689 803.848 237.924 804.035 237.252 804.408C236.599 804.781 236.076 805.323 235.684 806.032C235.292 806.723 235.096 807.553 235.096 808.524C235.096 809.476 235.292 810.307 235.684 811.016C236.076 811.725 236.599 812.267 237.252 812.64C237.924 813.013 238.68 813.2 239.52 813.2ZM257.175 816.196C255.905 816.196 254.785 815.963 253.815 815.496C252.844 815.011 252.088 814.283 251.547 813.312C251.005 812.323 250.735 811.081 250.735 809.588V801.048H254.235V809.112C254.235 810.456 254.533 811.464 255.131 812.136C255.747 812.789 256.615 813.116 257.735 813.116C258.556 813.116 259.265 812.948 259.863 812.612C260.479 812.276 260.955 811.772 261.291 811.1C261.645 810.428 261.823 809.597 261.823 808.608V801.048H265.323V816H261.991V811.968L262.579 813.2C262.075 814.171 261.337 814.917 260.367 815.44C259.396 815.944 258.332 816.196 257.175 816.196ZM275.533 816.196C273.891 816.196 272.621 815.776 271.725 814.936C270.829 814.077 270.381 812.817 270.381 811.156V797.744H273.881V811.072C273.881 811.781 274.059 812.332 274.413 812.724C274.787 813.116 275.3 813.312 275.953 813.312C276.737 813.312 277.391 813.107 277.913 812.696L278.893 815.188C278.483 815.524 277.979 815.776 277.381 815.944C276.784 816.112 276.168 816.196 275.533 816.196ZM267.917 803.96V801.16H277.885V803.96H267.917ZM294.663 816V808.244L295.475 810.484L286.963 796.4H290.855L297.687 807.74H295.503L302.391 796.4H305.975L297.463 810.484L298.303 808.244V816H294.663ZM313.075 816.196C311.544 816.196 310.181 815.869 308.987 815.216C307.792 814.544 306.849 813.629 306.159 812.472C305.468 811.315 305.123 809.999 305.123 808.524C305.123 807.031 305.468 805.715 306.159 804.576C306.849 803.419 307.792 802.513 308.987 801.86C310.181 801.207 311.544 800.88 313.075 800.88C314.624 800.88 315.996 801.207 317.191 801.86C318.404 802.513 319.347 803.409 320.019 804.548C320.709 805.687 321.055 807.012 321.055 808.524C321.055 809.999 320.709 811.315 320.019 812.472C319.347 813.629 318.404 814.544 317.191 815.216C315.996 815.869 314.624 816.196 313.075 816.196ZM313.075 813.2C313.933 813.2 314.699 813.013 315.371 812.64C316.043 812.267 316.565 811.725 316.939 811.016C317.331 810.307 317.527 809.476 317.527 808.524C317.527 807.553 317.331 806.723 316.939 806.032C316.565 805.323 316.043 804.781 315.371 804.408C314.699 804.035 313.943 803.848 313.103 803.848C312.244 803.848 311.479 804.035 310.807 804.408C310.153 804.781 309.631 805.323 309.239 806.032C308.847 806.723 308.651 807.553 308.651 808.524C308.651 809.476 308.847 810.307 309.239 811.016C309.631 811.725 310.153 812.267 310.807 812.64C311.479 813.013 312.235 813.2 313.075 813.2ZM330.729 816.196C329.46 816.196 328.34 815.963 327.369 815.496C326.399 815.011 325.643 814.283 325.101 813.312C324.56 812.323 324.289 811.081 324.289 809.588V801.048H327.789V809.112C327.789 810.456 328.088 811.464 328.685 812.136C329.301 812.789 330.169 813.116 331.289 813.116C332.111 813.116 332.82 812.948 333.417 812.612C334.033 812.276 334.509 811.772 334.845 811.1C335.2 810.428 335.377 809.597 335.377 808.608V801.048H338.877V816H335.545V811.968L336.133 813.2C335.629 814.171 334.892 814.917 333.921 815.44C332.951 815.944 331.887 816.196 330.729 816.196Z" fill="white"/>
</g>
<defs>
<filter id="filter0_d_130_1435" x="140.5" y="125" width="121" height="121" filterUnits="userSpaceOnUse" color-interpolation-filters="sRGB">
<feFlood flood-opacity="0" result="BackgroundImageFix"/>
<feColorMatrix in="SourceAlpha" type="matrix" values="0 0 0 0 0 0 0 0 0 0 0 0 0 0 0 0 0 0 127 0" result="hardAlpha"/>
<feOffset dy="11"/>
<feGaussianBlur stdDeviation="6"/>
<feComposite in2="hardAlpha" operator="out"/>
<feColorMatrix type="matrix" values="0 0 0 0 0.0352941 0 0 0 0 0.0588235 0 0 0 0 0.278431 0 0 0 0.1 0"/>
<feBlend mode="normal" in2="BackgroundImageFix" result="effect1_dropShadow_130_1435"/>
<feBlend mode="normal" in="SourceGraphic" in2="effect1_dropShadow_130_1435" result="shape"/>
</filter>
<linearGradient id="paint0_linear_130_1435" x1="201" y1="-342" x2="201" y2="886" gradientUnits="userSpaceOnUse">
<stop stop-color="#2D9CDB"/>
<stop offset="1" stop-color="#2F80ED"/>
</linearGradient>
<clipPath id="clip0_130_1435">
<rect width="402" height="874" rx="30" fill="white"/>
</clipPath>
</defs>
</svg>
